<?xml version="1.0" standalone="no"?>
<!DOCTYPE svg PUBLIC "-//W3C//DTD SVG 20010904//EN"
 "http://www.w3.org/TR/2001/REC-SVG-20010904/DTD/svg10.dtd">
<svg version="1.0" xmlns="http://www.w3.org/2000/svg"
 width="612.000000pt" height="567.000000pt" viewBox="0 0 612.000000 567.000000"
 preserveAspectRatio="xMidYMid meet">

<g transform="translate(0.000000,567.000000) scale(0.100000,-0.100000)"
fill="#000000" stroke="none">
<path d="M1340 5627 c-33 -22 -35 -27 -32 -72 1 -27 4 -50 5 -52 2 -1 18 2 36
7 25 7 43 5 68 -5 20 -8 36 -15 37 -15 0 0 -1 35 -4 77 l-5 78 -35 3 c-25 2
-46 -4 -70 -21z"/>
<path d="M1476 5573 c-7 -82 -4 -92 18 -74 17 14 61 18 97 8 25 -6 27 -5 32
41 3 29 1 52 -6 61 -17 20 -71 41 -105 41 -29 0 -29 0 -36 -77z"/>
<path d="M4575 5611 c-39 -18 -88 -61 -69 -61 6 0 15 5 21 11 6 6 35 19 64 28
53 18 77 41 42 41 -10 0 -36 -9 -58 -19z"/>
<path d="M4690 5617 c0 -7 22 -19 50 -26 27 -7 62 -22 77 -34 l28 -22 -16 25
c-28 44 -139 90 -139 57z"/>
<path d="M1243 5513 c-11 -47 4 -156 18 -131 5 9 12 51 16 92 5 64 4 76 -9 76
-10 0 -19 -15 -25 -37z"/>
<path d="M1646 5535 c-8 -22 16 -167 26 -157 14 14 21 127 9 150 -14 26 -27
28 -35 7z"/>
<path d="M4560 5470 c-24 -16 -57 -35 -72 -41 -20 -8 -28 -19 -28 -37 0 -24 1
-25 57 -18 31 4 71 14 90 22 30 15 33 20 33 60 0 54 -15 57 -80 14z"/>
<path d="M4700 5456 c0 -45 2 -48 38 -63 20 -8 60 -16 87 -17 43 -1 50 2 50
18 0 20 -105 91 -151 102 -23 6 -24 4 -24 -40z"/>
<path d="M1321 5464 c-12 -15 -21 -37 -21 -49 l0 -22 41 20 c33 16 45 18 65 8
32 -14 34 -14 34 4 0 24 -46 65 -74 65 -15 0 -33 -11 -45 -26z"/>
<path d="M1506 5459 c-32 -38 -33 -53 -3 -42 35 12 76 7 95 -11 27 -24 35 -20
28 16 -14 72 -75 91 -120 37z"/>
<path d="M1358 5383 c-53 -4 -58 -6 -58 -27 0 -31 23 -39 74 -25 38 10 66 31
66 51 0 4 -6 7 -12 6 -7 -1 -39 -3 -70 -5z"/>
<path d="M1490 5377 c0 -21 23 -38 67 -48 51 -11 73 -3 73 27 0 22 -4 24 -47
24 -27 0 -58 3 -70 6 -16 5 -23 2 -23 -9z"/>
<path d="M1351 5301 c-12 -8 -12 -14 -1 -40 10 -26 15 -29 31 -20 25 13 27 69
2 69 -10 0 -24 -4 -32 -9z"/>
<path d="M1530 5281 c0 -16 6 -34 14 -40 12 -10 18 -7 31 20 14 26 15 33 3 40
-28 18 -48 10 -48 -20z"/>
<path d="M4466 5285 c-9 -25 -7 -98 4 -115 13 -21 32 33 28 84 -3 41 -21 59
-32 31z"/>
<path d="M4520 5188 c0 -121 9 -150 37 -112 7 10 19 35 25 55 12 41 -5 101
-42 149 l-20 25 0 -117z"/>
<path d="M1283 5279 c-8 -8 -4 -21 15 -50 15 -21 30 -38 33 -39 16 -1 17 33 2
65 -17 36 -31 43 -50 24z"/>
<path d="M1593 5256 c-15 -32 -13 -67 4 -66 14 1 54 72 49 86 -10 25 -36 15
-53 -20z"/>
<path d="M4775 5240 c-31 -61 -31 -92 -1 -149 23 -44 24 -44 35 -22 14 25 12
221 -1 221 -4 0 -19 -22 -33 -50z"/>
<path d="M4837 5283 c-5 -9 9 -113 17 -120 11 -11 27 41 24 80 -2 29 -8 43
-20 45 -9 2 -18 -1 -21 -5z"/>
<path d="M1240 5212 c0 -37 39 -112 68 -130 l22 -15 -25 54 c-14 30 -28 69
-31 87 -8 40 -34 43 -34 4z"/>
<path d="M1641 5171 c-12 -39 -26 -73 -31 -76 -6 -3 -10 -11 -10 -16 0 -5 11
-2 24 6 44 29 87 155 53 155 -10 0 -22 -23 -36 -69z"/>
<path d="M1445 5225 c-5 -2 -27 -6 -47 -10 -21 -3 -38 -11 -38 -18 0 -9 30
-12 105 -12 103 0 122 5 88 23 -21 11 -93 23 -108 17z"/>
<path d="M4615 5137 c0 -60 -4 -79 -27 -118 -32 -54 -99 -117 -212 -201 -73
-53 -77 -58 -50 -58 35 0 118 -21 196 -49 69 -25 88 -20 88 25 0 18 9 80 20
136 31 162 26 338 -9 338 -4 0 -6 -33 -6 -73z"/>
<path d="M4703 5203 c-16 -6 -18 -226 -3 -290 5 -22 14 -78 19 -123 5 -49 14
-86 22 -91 16 -10 45 -3 119 27 31 12 84 26 118 30 l63 7 -38 25 c-74 50 -170
130 -215 180 -52 58 -72 115 -67 191 2 28 2 51 -1 50 -3 0 -11 -3 -17 -6z"/>
<path d="M1360 5147 c0 -16 63 -37 109 -37 38 0 101 25 101 39 0 7 -38 11
-105 11 -81 0 -105 -3 -105 -13z"/>
<path d="M1330 5113 c0 -34 90 -117 107 -100 2 3 -5 23 -16 45 -14 27 -31 43
-52 51 -38 13 -39 13 -39 4z"/>
<path d="M1558 5109 c-26 -10 -85 -86 -74 -96 13 -13 70 23 92 58 34 54 33 56
-18 38z"/>
<path d="M1291 4993 c12 -83 39 -157 97 -257 54 -94 67 -95 52 -4 -12 77 -41
147 -95 230 -27 40 -51 77 -55 81 -4 4 -3 -18 1 -50z"/>
<path d="M1592 4978 c-75 -117 -112 -215 -112 -298 l0 -35 20 25 c44 58 120
227 131 293 6 37 9 70 6 73 -2 2 -23 -24 -45 -58z"/>
<path d="M1397 4966 c-16 -12 -16 -14 0 -27 9 -8 29 -33 43 -57 l28 -42 11 28
c7 16 25 42 40 59 26 28 26 31 9 42 -24 15 -109 13 -131 -3z"/>
<path d="M1168 4811 c-59 -32 -111 -60 -114 -64 -4 -4 25 -5 65 -4 71 4 73 5
118 49 25 25 43 52 41 61 -2 12 -25 4 -110 -42z"/>
<path d="M1640 4857 c0 -7 23 -35 50 -62 49 -48 51 -49 121 -53 51 -3 70 -1
65 7 -4 6 -11 11 -16 11 -6 0 -54 25 -109 55 -55 30 -102 55 -105 55 -3 0 -6
-6 -6 -13z"/>
<path d="M1597 4787 c-21 -53 -21 -57 2 -57 45 0 49 8 34 53 -8 23 -15 43 -16
44 -1 1 -10 -17 -20 -40z"/>
<path d="M1293 4783 c-9 -29 -9 -40 0 -45 17 -11 57 -10 57 1 0 9 -39 81 -44
81 0 0 -6 -17 -13 -37z"/>
<path d="M4157 4726 c-58 -16 -70 -26 -31 -26 51 0 105 -21 140 -53 18 -18 61
-86 95 -152 76 -148 107 -194 180 -269 42 -44 61 -57 74 -52 17 6 18 20 12
194 -7 217 -15 255 -60 282 -44 27 -136 56 -236 75 -98 18 -111 18 -174 1z"/>
<path d="M4995 4724 c-153 -31 -249 -73 -266 -118 -16 -42 -25 -414 -11 -428
32 -32 154 117 257 314 89 169 111 191 208 204 57 8 51 18 -21 33 -63 13 -76
13 -167 -5z"/>
<path d="M845 4668 c-53 -18 -94 -67 -115 -136 -20 -65 -38 -222 -26 -222 4 0
26 39 48 88 52 110 107 192 158 233 22 18 37 36 34 40 -7 12 -62 10 -99 -3z"/>
<path d="M995 4666 c-55 -24 -143 -133 -197 -244 -28 -56 -49 -105 -47 -107 9
-8 110 33 144 59 20 15 52 49 70 74 43 59 118 210 110 222 -8 14 -44 12 -80
-4z"/>
<path d="M1170 4665 c-50 -23 -88 -62 -120 -126 -16 -30 -45 -77 -64 -102 -20
-26 -34 -47 -32 -47 3 0 56 41 118 90 97 78 203 142 272 164 37 12 -2 30 -72
33 -45 2 -78 -2 -102 -12z"/>
<path d="M1593 4670 c-34 -14 -28 -24 22 -39 55 -16 140 -70 245 -156 96 -78
140 -104 95 -56 -16 18 -50 69 -75 114 -60 108 -104 140 -198 144 -37 2 -77
-2 -89 -7z"/>
<path d="M1850 4669 c0 -24 68 -158 110 -218 45 -63 84 -93 160 -122 l52 -20
-6 26 c-23 93 -144 275 -211 319 -37 24 -105 34 -105 15z"/>
<path d="M1985 4671 c-3 -6 11 -22 30 -38 47 -37 122 -148 165 -246 40 -91 50
-83 38 32 -8 90 -38 179 -71 209 -44 41 -146 68 -162 43z"/>
<path d="M4014 4651 c-80 -48 -125 -179 -103 -293 6 -32 13 -58 14 -58 10 0
134 139 181 201 31 41 69 87 85 102 l30 28 -43 19 c-55 25 -124 26 -164 1z"/>
<path d="M5166 4655 c-22 -8 -42 -17 -44 -20 -3 -2 15 -24 38 -49 23 -24 57
-65 75 -90 18 -25 65 -80 104 -121 84 -89 86 -87 86 50 0 81 -3 95 -29 143
-17 30 -43 63 -60 75 -37 26 -117 32 -170 12z"/>
<path d="M1301 4590 c-62 -30 -100 -54 -263 -172 -43 -31 -83 -58 -90 -61 -44
-15 175 -141 290 -167 108 -25 207 14 192 75 -1 6 -2 80 -1 164 0 130 -2 158
-16 173 -22 25 -38 23 -112 -12z"/>
<path d="M1517 4607 c-15 -10 -18 -33 -22 -126 -2 -63 0 -124 5 -136 5 -12 3
-39 -3 -64 -11 -41 -10 -44 15 -66 39 -34 105 -41 186 -21 79 19 189 70 252
116 l44 33 -24 16 c-13 9 -76 54 -140 101 -116 85 -246 160 -279 160 -9 0 -25
-6 -34 -13z"/>
<path d="M4182 4530 c-35 -37 -88 -127 -95 -160 -6 -25 -4 -25 111 -48 144
-28 177 -29 167 -4 -4 9 -18 45 -31 80 -46 120 -72 162 -100 162 -15 0 -36
-12 -52 -30z"/>
<path d="M5065 4536 c-15 -22 -75 -166 -89 -213 -7 -21 -4 -23 26 -23 18 0 81
10 141 22 88 19 107 26 107 41 0 27 -44 107 -85 155 -42 49 -76 55 -100 18z"/>
<path d="M4034 4358 c-15 -18 -39 -58 -53 -88 -24 -52 -26 -62 -22 -175 7
-209 6 -319 -3 -340 -8 -17 -5 -16 18 5 15 13 43 57 63 97 45 92 51 163 28
334 -12 93 -14 136 -7 163 6 20 9 36 7 36 -2 0 -16 -15 -31 -32z"/>
<path d="M5278 4325 c2 -35 -3 -117 -12 -182 -13 -103 -13 -127 -1 -185 7 -37
19 -77 25 -90 17 -34 74 -118 80 -118 3 0 5 55 5 122 1 68 3 170 5 228 5 106
5 106 -32 181 -21 41 -45 82 -55 91 -17 16 -18 14 -15 -47z"/>
<path d="M865 4321 c-6 -4 -31 -16 -56 -26 l-47 -17 -31 -106 c-70 -240 -67
-332 9 -332 79 0 161 149 193 353 l14 88 -32 24 c-36 28 -37 28 -50 16z"/>
<path d="M2012 4307 c-15 -11 -29 -22 -31 -23 -7 -6 32 -201 52 -253 44 -120
102 -191 154 -191 73 0 77 98 12 320 -17 58 -35 109 -39 114 -5 4 -34 19 -64
31 l-56 23 -28 -21z"/>
<path d="M4090 4276 c0 -35 251 -751 289 -824 11 -20 45 -62 77 -92 31 -30 79
-82 106 -117 74 -94 78 -89 78 81 0 171 -17 519 -30 630 -11 88 -26 115 -114
200 -65 61 -127 91 -250 116 -117 24 -156 25 -156 6z"/>
<path d="M5105 4274 c-99 -20 -164 -43 -210 -74 -49 -34 -127 -116 -148 -156
-22 -43 -37 -238 -44 -573 -5 -257 -4 -293 9 -290 8 2 49 46 92 96 42 51 87
100 101 109 14 9 34 31 45 48 30 50 300 812 300 849 0 11 -67 6 -145 -9z"/>
<path d="M2211 4225 c57 -136 73 -286 44 -399 -16 -61 -14 -82 4 -48 51 95 22
395 -44 469 l-25 28 21 -50z"/>
<path d="M694 4228 c-23 -44 -54 -201 -54 -274 0 -72 15 -161 31 -181 19 -22
19 -11 3 42 -31 102 -15 270 36 390 23 54 23 55 10 55 -5 0 -17 -14 -26 -32z"/>
<path d="M3910 4228 c-34 -55 -59 -153 -71 -274 -6 -63 -9 -118 -5 -121 8 -8
10 3 34 142 12 66 32 157 45 203 13 45 22 82 20 82 -2 0 -12 -15 -23 -32z"/>
<path d="M5405 4245 c19 -53 66 -260 79 -345 l14 -95 1 86 c2 135 -35 294 -81
350 -17 20 -19 21 -13 4z"/>
<path d="M990 4225 c0 -20 5 -25 24 -25 34 0 41 16 14 34 -31 22 -38 20 -38
-9z"/>
<path d="M1897 4234 c-33 -18 -27 -34 14 -34 22 0 29 5 29 19 0 28 -11 31 -43
15z"/>
<path d="M1100 4191 c11 -21 58 -61 71 -61 23 0 4 28 -37 52 -37 23 -43 24
-34 9z"/>
<path d="M1777 4174 c-33 -22 -42 -44 -17 -44 12 0 70 50 70 61 0 14 -11 10
-53 -17z"/>
<path d="M1055 4143 c10 -43 61 -128 76 -128 9 0 15 14 17 40 3 37 -1 43 -42
78 -25 20 -48 37 -51 37 -4 0 -4 -12 0 -27z"/>
<path d="M1816 4125 c-44 -40 -48 -47 -42 -76 8 -43 12 -45 36 -24 31 28 82
145 63 145 -5 0 -30 -20 -57 -45z"/>
<path d="M987 4153 c-23 -22 10 -93 44 -93 23 0 24 11 5 49 -17 33 -40 53 -49
44z"/>
<path d="M1335 4146 c-82 -25 -125 -76 -125 -144 0 -44 15 -48 68 -19 26 14
63 28 82 32 72 14 70 12 70 75 0 51 -2 58 -22 64 -28 7 -24 7 -73 -8z"/>
<path d="M1517 4153 c-15 -4 -17 -14 -15 -66 l3 -60 59 -14 c32 -7 76 -23 97
-35 21 -12 42 -18 46 -14 16 15 7 85 -13 113 -36 49 -129 89 -177 76z"/>
<path d="M1906 4135 c-9 -14 -21 -36 -26 -50 -8 -22 -7 -25 13 -25 33 0 47 19
47 62 0 44 -11 48 -34 13z"/>
<path d="M3900 3998 c-8 -51 -14 -113 -14 -138 -1 -39 2 -45 19 -45 19 0 20 8
23 129 1 71 -1 133 -6 138 -5 5 -15 -31 -22 -84z"/>
<path d="M5408 4013 c-7 -105 1 -203 17 -203 32 0 35 26 19 146 -9 65 -19 123
-24 127 -4 5 -10 -27 -12 -70z"/>
<path d="M1020 4018 c0 -33 82 -138 107 -138 14 0 17 39 7 78 -4 12 -25 34
-49 47 -46 28 -65 31 -65 13z"/>
<path d="M1852 4013 c-41 -20 -60 -48 -64 -92 -4 -45 13 -49 51 -10 27 27 71
97 71 114 0 10 -25 5 -58 -12z"/>
<path d="M980 3980 c0 -84 48 -200 102 -245 32 -27 32 -27 41 -7 15 33 -2 90
-37 130 -19 20 -50 64 -70 97 l-36 60 0 -35z"/>
<path d="M1922 3973 c-12 -23 -43 -68 -69 -100 -37 -45 -47 -66 -51 -104 -5
-58 7 -67 47 -34 38 32 75 111 91 192 16 80 9 99 -18 46z"/>
<path d="M1328 3970 c-72 -22 -122 -89 -116 -158 3 -33 6 -37 28 -34 14 2 62
6 108 9 l82 4 0 85 c0 81 -1 85 -26 94 -29 11 -39 11 -76 0z"/>
<path d="M1518 3973 c-16 -4 -18 -17 -18 -93 l0 -89 83 -4 c45 -2 92 -7 104
-11 18 -7 22 -3 28 23 15 68 -43 148 -122 170 -40 11 -47 12 -75 4z"/>
<path d="M2060 3905 c29 -76 79 -140 136 -176 62 -38 50 -10 -28 64 -41 40
-83 87 -92 105 -20 38 -30 43 -16 7z"/>
<path d="M850 3895 c-7 -14 -49 -59 -92 -101 -44 -42 -77 -78 -74 -81 21 -21
131 80 164 151 24 50 25 75 2 31z"/>
<path d="M591 3800 c-52 -70 -80 -142 -126 -325 -44 -176 -74 -256 -123 -328
-44 -66 -45 -67 -28 -61 18 7 258 383 293 460 28 61 38 154 26 239 l-9 60 -33
-45z"/>
<path d="M2295 3776 c-20 -155 0 -208 179 -489 59 -93 110 -175 112 -182 3 -7
14 -15 24 -18 17 -4 15 2 -11 40 -55 79 -98 188 -134 337 -40 171 -82 278
-129 332 l-34 39 -7 -59z"/>
<path d="M3875 3722 c-27 -41 -45 -117 -35 -146 5 -14 14 -1 37 50 54 122 53
179 -2 96z"/>
<path d="M5424 3724 c4 -21 23 -67 41 -103 l34 -66 1 46 c0 31 -9 63 -27 99
-35 68 -59 80 -49 24z"/>
<path d="M1259 3735 c-29 -16 -49 -60 -49 -109 0 -43 16 -56 67 -56 24 0 60
-7 80 -15 70 -30 73 -27 73 80 0 93 -1 96 -26 105 -37 14 -115 11 -145 -5z"/>
<path d="M1518 3739 c-15 -8 -18 -25 -18 -104 0 -103 2 -106 57 -84 15 6 55
14 87 18 56 6 60 8 68 36 11 41 -7 100 -39 124 -28 23 -123 29 -155 10z"/>
<path d="M772 3690 c-60 -40 -116 -99 -142 -149 l-12 -24 28 20 c16 11 62 37
102 57 76 38 96 64 90 114 -3 24 -3 24 -66 -18z"/>
<path d="M2090 3700 c0 -49 16 -68 88 -105 37 -19 82 -44 100 -56 l33 -21 -21
35 c-24 41 -121 133 -168 160 l-32 18 0 -31z"/>
<path d="M3736 3688 c-37 -64 -62 -135 -107 -297 -22 -80 -52 -181 -67 -224
-27 -77 -27 -79 -8 -93 42 -30 53 -19 60 59 12 116 54 301 105 455 25 78 45
142 44 142 -1 0 -13 -19 -27 -42z"/>
<path d="M5570 3727 c0 -2 11 -32 25 -68 54 -137 107 -359 130 -546 7 -57 22
-66 60 -38 19 15 19 16 1 63 -10 26 -44 138 -76 249 -33 111 -75 233 -95 272
-30 60 -45 83 -45 68z"/>
<path d="M1053 3691 c-6 -3 -15 -82 -21 -175 -10 -150 -10 -172 4 -203 28 -57
143 -138 166 -115 6 6 4 47 -6 116 -9 59 -16 135 -16 169 0 100 -10 136 -45
172 -34 33 -66 47 -82 36z"/>
<path d="M1830 3681 c-57 -30 -80 -73 -80 -150 0 -36 -7 -124 -16 -194 -11
-86 -13 -132 -6 -139 15 -15 82 24 131 77 l44 47 -8 177 c-4 114 -11 180 -19
188 -9 10 -19 9 -46 -6z"/>
<path d="M3757 3537 c-50 -151 -91 -323 -101 -422 -6 -58 -6 -59 9 -33 28 50
76 179 96 256 16 66 51 332 45 339 -2 2 -24 -61 -49 -140z"/>
<path d="M3999 3664 c-8 -10 -23 -14 -42 -11 -27 3 -31 -1 -67 -72 -21 -42
-52 -127 -69 -189 -17 -61 -40 -133 -50 -160 -10 -26 -22 -56 -26 -67 -12 -31
109 142 150 215 37 66 76 151 114 248 20 51 16 67 -10 36z"/>
<path d="M4252 3594 c-1 -49 -4 -118 -8 -153 -6 -60 -6 -64 12 -56 11 4 32 10
49 14 16 4 31 14 33 24 3 15 -60 213 -78 246 -4 8 -8 -26 -8 -75z"/>
<path d="M5310 3677 c0 -10 77 -191 106 -248 29 -59 149 -245 175 -274 5 -5
-2 18 -15 52 -14 33 -40 112 -57 175 -17 62 -49 150 -70 194 -35 75 -40 81
-63 77 -15 -3 -37 2 -51 11 -14 9 -25 15 -25 13z"/>
<path d="M5060 3624 c-29 -67 -62 -181 -58 -200 3 -17 84 -48 92 -35 2 3 0 49
-6 101 -5 52 -8 114 -6 138 2 23 2 42 0 42 -1 0 -11 -20 -22 -46z"/>
<path d="M5535 3630 c22 -204 30 -254 50 -326 13 -44 40 -117 59 -160 l35 -79
1 43 c0 88 -74 384 -130 518 l-20 49 5 -45z"/>
<path d="M2135 3558 c12 -58 77 -179 178 -330 54 -81 102 -150 107 -153 5 -3
-19 41 -54 97 -35 57 -100 174 -145 261 -46 86 -85 157 -88 157 -2 0 -2 -15 2
-32z"/>
<path d="M711 3443 c-39 -78 -101 -190 -137 -250 -108 -178 -97 -168 39 33 97
144 144 228 166 297 29 87 0 53 -68 -80z"/>
<path d="M638 3491 c-54 -50 -63 -63 -187 -285 -75 -133 -92 -182 -26 -74 45
74 112 170 176 253 69 91 111 155 100 155 -5 0 -33 -22 -63 -49z"/>
<path d="M2230 3521 c6 -12 40 -60 76 -107 82 -109 162 -225 198 -286 15 -27
32 -48 37 -48 5 0 -8 28 -29 63 -21 34 -63 109 -93 166 -53 103 -125 192 -177
220 -22 12 -23 11 -12 -8z"/>
<path d="M1238 3524 c-36 -36 45 -444 103 -517 27 -36 66 -36 79 -1 6 14 10
109 10 211 0 268 -11 292 -138 309 -26 3 -50 2 -54 -2z"/>
<path d="M1587 3516 c-26 -7 -50 -16 -54 -20 -25 -24 -33 -93 -33 -282 0 -221
5 -242 53 -230 52 13 116 202 138 412 15 144 10 150 -104 120z"/>
<path d="M620 3373 c-60 -86 -186 -320 -177 -329 3 -3 40 53 83 123 84 138
169 293 160 293 -3 0 -32 -39 -66 -87z"/>
<path d="M2240 3455 c0 -13 48 -100 138 -250 113 -188 101 -169 107 -164 8 9
-107 223 -172 322 -60 90 -73 106 -73 92z"/>
<path d="M4283 3358 c-30 -15 -58 -86 -77 -197 -22 -129 -20 -136 14 -64 36
74 83 116 170 156 36 16 66 31 68 32 2 2 -4 15 -13 28 -31 48 -111 70 -162 45z"/>
<path d="M4933 3350 c-27 -16 -53 -47 -53 -63 0 -3 24 -15 53 -27 108 -47 157
-94 199 -195 21 -50 22 -42 3 75 -20 125 -41 185 -72 210 -33 26 -88 26 -130
0z"/>
<path d="M996 3242 c-13 -21 -36 -184 -34 -242 0 -30 3 -41 5 -25 2 17 13 80
24 142 20 109 22 152 5 125z"/>
<path d="M1910 3243 c0 -4 5 -28 11 -53 6 -25 20 -94 30 -155 l19 -110 -6 95
c-7 121 -25 222 -41 228 -7 2 -13 0 -13 -5z"/>
<path d="M4415 3230 c-73 -28 -148 -99 -185 -173 -57 -118 -62 -217 -17 -393
l23 -92 45 47 c26 27 84 67 138 95 50 27 103 62 117 78 28 34 30 60 10 155 -8
37 -21 115 -30 172 -14 93 -27 132 -45 130 -3 0 -28 -9 -56 -19z"/>
<path d="M4841 3229 c-5 -13 -14 -64 -20 -114 -7 -49 -19 -121 -27 -158 -29
-140 -14 -170 118 -239 45 -23 107 -66 139 -96 50 -46 59 -51 59 -33 0 12 9
58 21 103 31 120 24 269 -16 353 -47 97 -141 176 -239 201 -21 5 -27 2 -35
-17z"/>
<path d="M1012 3098 c-12 -68 -27 -178 -34 -245 -25 -255 30 -734 107 -915 21
-53 24 -47 8 15 -23 91 -53 321 -62 484 -9 161 -4 274 25 586 16 173 15 197
-9 197 -10 0 -20 -35 -35 -122z"/>
<path d="M1864 3205 c-4 -10 3 -136 16 -282 35 -402 17 -729 -56 -1008 -10
-41 14 10 35 73 46 136 77 334 91 586 11 187 4 289 -33 510 -21 124 -38 162
-53 121z"/>
<path d="M1093 3085 c5 -100 40 -203 165 -480 50 -110 104 -238 120 -285 37
-104 40 -88 8 45 -41 167 -82 278 -290 785 -3 8 -4 -21 -3 -65z"/>
<path d="M1824 3138 c-3 -13 -44 -113 -89 -223 -102 -245 -157 -403 -196 -560
-16 -66 -29 -124 -29 -130 1 -5 22 49 49 120 26 72 85 211 130 310 102 221
138 327 147 428 7 76 2 98 -12 55z"/>
<path d="M4545 3117 c12 -84 35 -166 61 -223 l28 -59 9 103 c11 124 3 150 -60
192 l-44 30 6 -43z"/>
<path d="M4749 3126 c-25 -19 -49 -42 -53 -51 -8 -21 -7 -136 2 -195 l7 -45
27 60 c31 71 45 120 56 203 5 34 8 62 8 62 -1 0 -22 -16 -47 -34z"/>
<path d="M1130 3137 c0 -11 39 -87 45 -87 3 0 5 9 5 19 0 19 -49 85 -50 68z"/>
<path d="M1771 3116 c-13 -13 -21 -32 -19 -43 3 -14 8 -10 27 20 28 45 24 57
-8 23z"/>
<path d="M1195 3029 c-7 -31 10 -89 26 -89 31 0 39 94 10 110 -28 14 -29 14
-36 -21z"/>
<path d="M1684 3035 c-16 -24 -13 -56 8 -82 17 -21 27 -15 39 26 8 29 8 43 0
60 -15 27 -27 27 -47 -4z"/>
<path d="M205 3020 c-104 -50 -100 -77 10 -70 44 2 114 53 115 83 0 14 -86 6
-125 -13z"/>
<path d="M2600 3033 c0 -17 32 -53 60 -68 36 -19 144 -21 138 -2 -10 29 -87
70 -143 75 -30 2 -55 0 -55 -5z"/>
<path d="M332 2996 c-6 -13 -31 -36 -56 -52 -25 -16 -67 -43 -93 -59 -63 -40
-63 -62 -3 -93 46 -22 179 -36 195 -20 4 4 0 36 -10 72 -13 46 -16 82 -11 121
6 57 -3 72 -22 31z"/>
<path d="M2574 2973 c5 -35 1 -76 -10 -123 -10 -38 -14 -73 -10 -78 11 -10
116 -5 164 8 52 13 87 42 79 63 -3 9 -42 37 -86 62 -45 26 -95 63 -112 83
l-31 37 6 -52z"/>
<path d="M390 2985 c-12 -32 -13 -135 -2 -135 13 0 32 47 38 94 5 31 2 45 -10
55 -13 11 -17 9 -26 -14z"/>
<path d="M2511 3000 c-17 -10 -9 -96 12 -137 l15 -27 7 32 c7 35 -2 129 -14
136 -4 3 -13 1 -20 -4z"/>
<path d="M3443 2971 c-30 -27 -43 -47 -43 -65 0 -14 3 -26 8 -26 9 0 94 105
94 117 -1 18 -20 10 -59 -26z"/>
<path d="M5830 2999 c0 -13 91 -119 102 -119 4 0 8 11 8 24 0 16 -15 39 -42
65 -42 40 -68 52 -68 30z"/>
<path d="M1270 2978 c0 -13 -7 -36 -15 -52 -8 -15 -15 -35 -15 -43 0 -22 59
-143 70 -143 14 0 69 100 76 140 6 31 3 37 -40 77 -53 48 -76 54 -76 21z"/>
<path d="M1579 2953 c-56 -52 -55 -49 -6 -151 17 -34 35 -61 41 -59 17 4 78
130 72 147 -25 76 -40 110 -48 110 -5 0 -31 -21 -59 -47z"/>
<path d="M42 2910 c-77 -56 -37 -89 44 -37 23 15 33 29 32 42 -4 30 -30 29
-76 -5z"/>
<path d="M2810 2920 c-11 -20 -5 -25 78 -74 13 -8 42 9 42 25 0 12 -80 69 -96
69 -7 0 -18 -9 -24 -20z"/>
<path d="M3290 2913 c-43 -34 -50 -43 -43 -60 8 -20 33 -16 72 14 20 14 38 28
39 29 8 6 -10 44 -21 44 -7 0 -28 -12 -47 -27z"/>
<path d="M3483 2910 c-30 -36 -37 -56 -24 -65 7 -4 19 13 31 41 11 26 19 48
18 49 -2 1 -13 -10 -25 -25z"/>
<path d="M5780 2938 c-1 -30 24 -108 36 -108 8 0 14 6 14 13 -1 13 -49 106
-50 95z"/>
<path d="M5980 2921 c-8 -16 -3 -24 32 -50 48 -36 78 -40 78 -12 0 20 -65 81
-87 81 -7 0 -17 -9 -23 -19z"/>
<path d="M1822 2886 c-6 -25 -41 -109 -78 -188 -118 -255 -118 -254 -95 -423
8 -55 14 -191 15 -302 l1 -203 26 0 c26 0 27 3 39 88 21 155 60 353 100 517
34 136 40 175 40 266 0 107 -15 252 -29 276 -4 8 -12 -5 -19 -31z"/>
<path d="M3596 2887 c-20 -52 -20 -57 -2 -57 8 0 16 17 20 47 8 60 3 64 -18
10z"/>
<path d="M5721 2905 c-1 -45 10 -75 26 -75 15 0 13 16 -13 74 l-13 31 0 -30z"/>
<path d="M5830 2925 c0 -3 9 -24 21 -47 14 -28 24 -37 31 -30 7 7 2 21 -17 46
-26 35 -35 42 -35 31z"/>
<path d="M1069 2838 c-7 -46 -13 -132 -13 -193 -1 -94 5 -131 36 -255 45 -177
62 -260 88 -426 11 -71 23 -144 26 -161 4 -28 9 -33 32 -33 l27 0 0 198 c0
108 6 256 14 328 17 156 16 161 -85 377 -35 76 -72 162 -82 192 -9 30 -20 55
-23 55 -4 0 -12 -37 -20 -82z"/>
<path d="M3525 2880 c-17 -38 -15 -64 4 -44 10 10 26 84 19 84 -3 0 -13 -18
-23 -40z"/>
<path d="M1417 2879 c-4 -20 -26 -66 -48 -104 -23 -37 -41 -77 -42 -89 0 -19
49 -195 57 -203 1 -2 10 20 19 48 22 67 39 270 29 334 l-8 50 -7 -36z"/>
<path d="M1494 2886 c-9 -23 3 -247 16 -306 6 -25 16 -58 22 -74 11 -27 12
-24 39 65 16 52 29 102 29 112 0 10 -16 45 -35 78 -19 32 -41 78 -49 101 -12
35 -16 39 -22 24z"/>
<path d="M60 2720 c-38 -63 -44 -90 -20 -90 11 0 90 131 90 148 0 32 -32 5
-70 -58z"/>
<path d="M2796 2782 c-4 -7 62 -124 83 -145 7 -7 14 -8 21 -1 6 6 -5 35 -32
82 -38 66 -59 85 -72 64z"/>
<path d="M3316 2723 c-39 -74 -44 -93 -21 -93 8 0 30 30 50 70 39 77 42 90 21
90 -8 0 -31 -30 -50 -67z"/>
<path d="M5960 2780 c0 -24 71 -150 85 -150 22 0 19 13 -20 90 -20 40 -42 70
-50 70 -8 0 -15 -5 -15 -10z"/>
<path d="M145 2675 c-29 -65 -36 -88 -27 -97 17 -17 25 -6 66 87 33 75 34 94
5 95 -4 0 -24 -38 -44 -85z"/>
<path d="M2716 2751 c-6 -10 55 -156 73 -174 7 -7 14 -8 21 -1 7 7 -1 38 -26
97 -34 79 -54 102 -68 78z"/>
<path d="M3419 2733 c-42 -109 -50 -136 -45 -150 6 -14 9 -15 21 -2 17 17 75
166 67 173 -13 14 -33 4 -43 -21z"/>
<path d="M3582 2709 c-15 -62 -15 -99 -2 -99 5 0 12 12 16 28 3 15 10 43 15
62 12 48 11 60 -4 60 -8 0 -18 -21 -25 -51z"/>
<path d="M4551 2747 c-25 -12 -25 -13 -28 -177 -2 -139 17 -394 31 -408 15
-15 46 317 46 501 0 104 -3 108 -49 84z"/>
<path d="M4744 2543 c5 -184 24 -364 39 -379 13 -13 34 278 30 417 -5 154 -5
157 -30 168 -47 22 -47 24 -39 -206z"/>
<path d="M5724 2719 c9 -60 26 -109 37 -109 21 0 -8 141 -30 148 -11 4 -13 -4
-7 -39z"/>
<path d="M5877 2754 c-7 -7 49 -164 64 -178 6 -6 13 -6 20 1 10 10 -4 60 -46
166 -7 17 -26 23 -38 11z"/>
<path d="M3490 2681 c-24 -81 -25 -101 -5 -101 14 0 37 61 51 136 5 27 3 34
-9 34 -11 0 -23 -22 -37 -69z"/>
<path d="M5814 2668 c16 -58 27 -84 39 -86 19 -4 21 12 7 54 -5 16 -14 48 -20
72 -8 31 -16 42 -30 42 -18 0 -18 -3 4 -82z"/>
<path d="M255 2728 c-23 -62 -45 -134 -45 -145 0 -7 6 -13 14 -13 12 0 66 130
66 159 0 15 -30 14 -35 -1z"/>
<path d="M325 2675 c-28 -101 0 -106 29 -6 19 67 20 71 2 71 -9 0 -20 -25 -31
-65z"/>
<path d="M2573 2670 c13 -43 26 -70 35 -70 10 0 12 8 7 32 -14 62 -32 103 -47
106 -13 3 -12 -7 5 -68z"/>
<path d="M2630 2737 c0 -11 54 -154 61 -161 6 -6 13 -6 19 0 7 7 1 36 -16 87
-20 60 -30 77 -45 77 -10 0 -19 -1 -19 -3z"/>
<path d="M4156 2632 c-8 -78 2 -288 14 -275 3 4 15 43 25 86 20 83 15 149 -17
227 l-15 35 -7 -73z"/>
<path d="M4414 2665 c-49 -29 -48 -28 -69 -243 -32 -326 -16 -437 106 -745 22
-53 39 -105 39 -113 0 -14 3 -14 15 -4 22 19 18 61 -14 142 -15 40 -34 98 -42
128 -19 77 -15 273 10 454 24 172 29 406 9 406 -7 0 -32 -11 -54 -25z"/>
<path d="M4855 2629 c-8 -70 -2 -150 26 -369 16 -115 20 -190 16 -290 -4 -127
-7 -142 -46 -257 -40 -114 -41 -124 -27 -144 15 -22 16 -22 22 -3 3 10 32 89
64 174 83 223 93 273 92 465 -1 196 -25 411 -50 438 -18 20 -64 47 -81 47 -5
0 -12 -27 -16 -61z"/>
<path d="M5146 2632 c-20 -72 -20 -132 -1 -196 8 -27 15 -63 16 -80 l1 -31 9
35 c12 48 13 310 1 322 -6 6 -15 -13 -26 -50z"/>
<path d="M4286 2568 c-44 -41 -47 -48 -67 -138 -11 -52 -23 -144 -26 -205 -4
-94 -1 -127 21 -228 19 -85 26 -150 27 -230 1 -62 5 -123 9 -137 l8 -25 2 25
c4 64 12 111 30 178 23 84 24 122 8 243 -13 98 2 383 25 497 8 34 13 62 11 62
-1 0 -23 -19 -48 -42z"/>
<path d="M5004 2595 c32 -82 49 -482 26 -607 -11 -60 -10 -74 11 -150 12 -46
25 -113 29 -151 4 -37 10 -70 13 -73 6 -7 16 118 15 206 -1 37 10 116 25 182
15 65 27 144 27 176 0 70 -36 293 -55 338 -14 35 -104 113 -91 79z"/>
<path d="M1832 2283 c-41 -175 -49 -216 -72 -378 -16 -119 -17 -142 -5 -154
11 -12 16 -6 29 38 20 69 53 253 65 371 16 156 23 250 18 250 -3 0 -19 -57
-35 -127z"/>
<path d="M1061 2375 c-3 -146 68 -596 100 -629 18 -19 22 31 10 128 -14 114
-73 418 -95 486 -13 40 -15 42 -15 15z"/>
<path d="M1562 2255 c-41 -145 -52 -210 -52 -316 0 -148 28 -227 77 -217 34 6
43 47 43 191 0 135 -15 346 -29 417 -6 33 -9 27 -39 -75z"/>
<path d="M1311 2208 c-7 -79 -13 -208 -14 -288 -2 -126 0 -150 16 -173 25 -39
57 -33 80 15 27 54 33 211 14 323 -17 97 -66 265 -77 265 -4 0 -12 -64 -19
-142z"/>
<path d="M4816 2185 c-20 -106 -35 -440 -21 -492 7 -27 7 -27 27 22 41 104 49
180 33 337 -8 79 -16 163 -17 188 -3 40 -5 33 -22 -55z"/>
<path d="M4486 2085 c-19 -207 -14 -270 32 -375 l20 -45 7 46 c9 59 -11 427
-28 504 l-13 60 -18 -190z"/>
<path d="M1811 1752 c-11 -37 -21 -74 -21 -83 0 -8 -9 -32 -19 -52 -11 -21
-22 -57 -26 -80 -7 -42 -7 -42 10 -18 10 13 33 29 51 37 l34 14 0 125 c0 69
-2 125 -4 125 -2 0 -13 -31 -25 -68z"/>
<path d="M1091 1688 c-1 -119 0 -128 18 -128 10 0 32 -14 49 -32 l31 -31 -5
39 c-3 21 -14 57 -24 79 -11 22 -30 76 -43 120 l-25 80 -1 -127z"/>
<path d="M4306 1782 c-3 -5 -10 -47 -15 -93 -5 -46 -22 -154 -37 -239 -33
-193 -30 -285 12 -396 16 -41 39 -87 51 -102 l23 -27 31 34 c22 24 29 39 24
55 -28 95 -37 197 -38 458 -2 269 -3 278 -23 299 -12 11 -24 17 -28 11z"/>
<path d="M5006 1775 c-24 -24 -27 -61 -30 -355 -2 -227 -5 -289 -21 -353 l-18
-78 31 -31 c39 -40 49 -33 90 66 60 142 62 244 12 504 -10 53 -22 132 -26 175
-4 43 -10 80 -15 82 -4 3 -14 -2 -23 -10z"/>
<path d="M1396 1677 c-9 -42 -35 -120 -57 -171 -40 -96 -46 -138 -32 -221 l6
-40 13 64 c7 34 30 97 51 139 33 67 38 86 41 166 6 135 -1 155 -22 63z"/>
<path d="M1507 1705 c-11 -79 6 -182 42 -254 18 -35 40 -95 50 -135 l18 -71 6
66 c8 77 2 118 -28 179 -28 56 -55 138 -70 210 l-11 55 -7 -50z"/>
<path d="M4385 1583 c9 -228 24 -491 32 -541 4 -33 17 -56 55 -98 28 -30 56
-54 64 -54 20 0 44 93 44 170 0 106 -37 282 -97 465 -89 271 -107 281 -98 58z"/>
<path d="M4925 1717 c-26 -41 -123 -349 -145 -462 -33 -172 -24 -346 18 -362
15 -6 87 59 107 97 17 33 32 204 40 440 3 102 8 213 11 248 7 67 -4 80 -31 39z"/>
<path d="M1202 1704 c-13 -9 -22 -26 -22 -40 0 -24 39 -74 59 -74 21 0 71 53
71 75 0 27 -34 55 -65 55 -11 0 -31 -7 -43 -16z"/>
<path d="M1642 1704 c-35 -24 -30 -70 11 -94 17 -11 35 -20 40 -20 14 0 47 40
53 66 13 51 -55 82 -104 48z"/>
<path d="M1285 1571 c-3 -6 -18 -11 -32 -11 -18 0 -24 -4 -20 -14 3 -8 9 -31
13 -50 3 -20 9 -36 13 -36 3 0 14 26 23 57 16 55 17 76 3 54z"/>
<path d="M1649 1509 l16 -59 17 52 c9 29 16 53 15 54 -1 1 -16 4 -33 7 l-30 6
15 -60z"/>
<path d="M1116 1464 c-21 -54 0 -199 67 -469 25 -99 69 -285 98 -414 48 -212
65 -259 85 -239 2 3 -5 36 -17 73 -55 178 -69 273 -79 510 -11 285 -32 420
-82 518 -13 27 -25 37 -42 37 -13 0 -27 -7 -30 -16z"/>
<path d="M1746 1457 c-50 -75 -76 -225 -86 -497 -10 -241 -24 -343 -66 -485
-38 -129 -39 -135 -21 -135 19 0 18 -4 92 325 31 138 72 309 91 381 58 228 77
371 54 415 -14 26 -46 24 -64 -4z"/>
<path d="M1365 1360 c-5 -8 -11 -82 -13 -165 -4 -123 -1 -157 12 -189 13 -31
19 -37 29 -27 8 8 11 48 10 129 -2 135 -23 276 -38 252z"/>
<path d="M1541 1310 c-17 -90 -25 -311 -12 -330 10 -13 12 -13 21 0 24 36 32
100 27 220 -2 69 -9 136 -14 150 -9 22 -11 17 -22 -40z"/>
<path d="M1077 1183 c-10 -57 9 -161 64 -363 46 -165 119 -463 119 -482 0 -5
7 -8 16 -8 12 0 14 5 9 18 -4 9 -27 118 -52 242 -53 275 -109 542 -123 593
-14 47 -26 47 -33 0z"/>
<path d="M1816 1171 c-21 -71 -59 -254 -106 -501 -22 -118 -46 -241 -55 -273
-18 -70 -18 -67 -2 -67 9 0 21 35 35 103 12 56 51 212 88 347 49 184 67 268
71 336 7 107 -8 133 -31 55z"/>
<path d="M1570 959 c-15 -45 -16 -69 -9 -322 4 -165 12 -153 28 47 12 143 13
258 2 295 -6 23 -8 21 -21 -20z"/>
<path d="M1330 873 c0 -120 15 -318 28 -366 4 -15 7 28 7 96 0 67 2 163 5 212
4 90 -11 175 -30 175 -6 0 -10 -49 -10 -117z"/>
<path d="M4367 927 l-29 -23 41 -199 c34 -169 70 -454 71 -562 0 -14 6 -23 15
-23 12 0 15 19 16 108 1 122 8 209 34 408 22 163 18 192 -40 267 -41 54 -65
59 -108 24z"/>
<path d="M4866 907 c-64 -78 -68 -121 -37 -336 11 -71 23 -202 27 -291 5 -111
11 -160 19 -160 8 0 15 52 24 163 6 89 19 203 27 252 14 84 59 309 70 347 6
21 -44 68 -73 68 -13 0 -35 -16 -57 -43z"/>
<path d="M4340 569 c0 -64 8 -151 21 -220 11 -63 19 -135 16 -161 -3 -33 0
-52 10 -59 7 -7 15 -10 16 -8 2 2 0 78 -4 169 -7 162 -33 356 -50 375 -5 5 -9
-34 -9 -96z"/>
<path d="M4971 608 c-31 -178 -48 -492 -27 -485 6 2 12 33 13 72 1 38 10 102
18 144 21 95 31 291 18 316 -8 14 -13 5 -22 -47z"/>
<path d="M1337 313 c-3 -5 -7 -35 -11 -68 -4 -33 -9 -77 -12 -98 -5 -34 -4
-37 18 -37 23 0 25 4 34 92 8 73 7 94 -4 105 -15 15 -19 16 -25 6z"/>
<path d="M1553 268 c4 -24 9 -69 13 -100 6 -51 9 -58 28 -58 22 0 22 2 14 78
-12 112 -15 122 -39 122 -19 0 -21 -4 -16 -42z"/>
<path d="M1405 290 c-3 -5 -9 -48 -12 -95 -5 -75 -4 -85 11 -85 14 0 16 13 16
95 0 92 -2 106 -15 85z"/>
<path d="M1509 223 c-1 -46 -2 -89 -3 -95 -1 -7 7 -14 18 -16 18 -4 18 1 11
80 -10 116 -24 133 -26 31z"/>
<path d="M1265 205 c-18 -86 -17 -102 8 -92 9 3 17 30 21 77 4 40 10 78 13 86
3 8 -1 14 -10 14 -10 0 -20 -25 -32 -85z"/>
<path d="M1623 263 c3 -16 9 -56 13 -91 6 -53 9 -62 26 -62 17 0 19 5 15 27
-4 16 -12 56 -18 91 -9 42 -17 62 -27 62 -10 0 -13 -8 -9 -27z"/>
<path d="M1662 270 c26 -91 54 -150 70 -150 22 0 23 9 1 40 -9 13 -30 47 -46
74 -16 28 -27 44 -25 36z"/>
<path d="M1232 222 c-12 -20 -31 -52 -43 -70 l-22 -34 23 4 c18 2 28 17 47 67
13 35 22 65 20 67 -2 2 -13 -13 -25 -34z"/>
<path d="M4527 171 c-9 -16 -17 -41 -17 -56 0 -27 1 -26 34 16 24 32 31 48 24
57 -15 18 -22 15 -41 -17z"/>
<path d="M4770 185 c-9 -11 -5 -22 22 -54 27 -33 34 -37 36 -21 3 19 -21 74
-37 84 -5 3 -14 -1 -21 -9z"/>
<path d="M4310 144 c0 -22 86 -108 100 -99 18 11 11 26 -27 62 -52 48 -73 58
-73 37z"/>
<path d="M4962 112 c-40 -35 -56 -72 -30 -72 14 0 98 86 98 100 0 19 -26 9
-68 -28z"/>
<path d="M1136 74 c-8 -21 -8 -24 4 -24 5 0 14 9 20 20 8 16 8 20 -4 20 -7 0
-17 -7 -20 -16z"/>
<path d="M1760 81 c0 -13 29 -35 37 -28 7 8 -15 37 -28 37 -5 0 -9 -4 -9 -9z"/>
<path d="M4444 75 c-4 -10 -1 -21 7 -26 20 -12 34 -5 34 17 0 24 -33 31 -41 9z"/>
<path d="M4849 74 c-10 -13 -10 -17 2 -25 17 -11 21 -11 38 0 17 11 7 41 -12
41 -8 0 -20 -7 -28 -16z"/>
<path d="M1180 61 c-6 -13 -6 -22 -1 -26 9 -5 31 24 31 39 0 14 -20 4 -30 -13z"/>
<path d="M1367 74 c-13 -14 -7 -65 9 -71 21 -8 32 6 36 42 2 24 -1 31 -17 33
-12 2 -24 0 -28 -4z"/>
<path d="M1510 52 c0 -34 22 -57 46 -48 10 4 14 16 12 38 -2 28 -8 34 -30 36
-25 3 -28 0 -28 -26z"/>
<path d="M1720 66 c0 -16 24 -38 33 -30 8 9 -11 44 -23 44 -6 0 -10 -6 -10
-14z"/>
<path d="M1225 49 c-4 -11 -4 -23 -2 -26 9 -8 24 5 30 27 7 27 -20 27 -28 -1z"/>
<path d="M1287 64 c-13 -14 -7 -54 8 -54 8 0 15 9 15 20 0 11 0 23 1 27 1 10
-16 15 -24 7z"/>
<path d="M1614 48 c3 -13 6 -26 6 -30 0 -15 30 -8 30 6 0 26 -12 46 -27 46
-11 0 -14 -6 -9 -22z"/>
<path d="M1670 62 c0 -15 28 -47 35 -40 11 11 -5 48 -21 48 -8 0 -14 -4 -14
-8z"/>
</g>
</svg>
